P3
64 64
255
0 251 51
3 251 51
7 251 51
11 251 51
15 251 51
19 251 51
23 251 51
27 251 51
31 251 51
35 251 51
39 251 51
43 251 51
47 251 51
51 251 51
55 251 51
59 251 51
63 251 51
67 251 51
71 251 51
75 251 51
79 251 51
83 251 51
87 251 51
91 251 51
95 251 51
99 251 51
103 251 51
107 251 51
111 251 51
115 251 51
119 251 51
123 251 51
127 251 51
131 251 51
135 251 51
139 251 51
143 251 51
147 251 51
151 251 51
155 251 51
159 251 51
163 251 51
167 251 51
171 251 51
175 251 51
179 251 51
183 251 51
187 251 51
191 251 51
195 251 51
199 251 51
203 251 51
207 251 51
211 251 51
215 251 51
219 251 51
223 251 51
227 251 51
231 251 51
235 251 51
239 251 51
243 251 51
247 251 51
251 251 51
0 247 51
3 247 51
7 247 51
11 247 51
15 247 51
19 247 51
23 247 51
27 247 51
31 247 51
35 247 51
39 247 51
43 247 51
47 247 51
51 247 51
55 247 51
59 247 51
63 247 51
67 247 51
71 247 51
75 247 51
79 247 51
83 247 51
87 247 51
91 247 51
95 247 51
99 247 51
103 247 51
107 247 51
111 247 51
115 247 51
119 247 51
123 247 51
127 247 51
131 247 51
135 247 51
139 247 51
143 247 51
147 247 51
151 247 51
155 247 51
159 247 51
163 247 51
167 247 51
171 247 51
175 247 51
179 247 51
183 247 51
187 247 51
191 247 51
195 247 51
199 247 51
203 247 51
207 247 51
211 247 51
215 247 51
219 247 51
223 247 51
227 247 51
231 247 51
235 247 51
239 247 51
243 247 51
247 247 51
251 247 51
0 243 51
3 243 51
7 243 51
11 243 51
15 243 51
19 243 51
23 243 51
27 243 51
31 243 51
35 243 51
39 243 51
43 243 51
47 243 51
51 243 51
55 243 51
59 243 51
63 243 51
67 243 51
71 243 51
75 243 51
79 243 51
83 243 51
87 243 51
91 243 51
95 243 51
99 243 51
103 243 51
107 243 51
111 243 51
115 243 51
119 243 51
123 243 51
127 243 51
131 243 51
135 243 51
139 243 51
143 243 51
147 243 51
151 243 51
155 243 51
159 243 51
163 243 51
167 243 51
171 243 51
175 243 51
179 243 51
183 243 51
187 243 51
191 243 51
195 243 51
199 243 51
203 243 51
207 243 51
211 243 51
215 243 51
219 243 51
223 243 51
227 243 51
231 243 51
235 243 51
239 243 51
243 243 51
247 243 51
251 243 51
0 239 51
3 239 51
7 239 51
11 239 51
15 239 51
19 239 51
23 239 51
27 239 51
31 239 51
35 239 51
39 239 51
43 239 51
47 239 51
51 239 51
55 239 51
59 239 51
63 239 51
67 239 51
71 239 51
75 239 51
79 239 51
83 239 51
87 239 51
91 239 51
95 239 51
99 239 51
103 239 51
107 239 51
111 239 51
115 239 51
119 239 51
123 239 51
127 239 51
131 239 51
135 239 51
139 239 51
143 239 51
147 239 51
151 239 51
155 239 51
159 239 51
163 239 51
167 239 51
171 239 51
175 239 51
179 239 51
183 239 51
187 239 51
191 239 51
195 239 51
199 239 51
203 239 51
207 239 51
211 239 51
215 239 51
219 239 51
223 239 51
227 239 51
231 239 51
235 239 51
239 239 51
243 239 51
247 239 51
251 239 51
0 235 51
3 235 51
7 235 51
11 235 51
15 235 51
19 235 51
23 235 51
27 235 51
31 235 51
35 235 51
39 235 51
43 235 51
47 235 51
51 235 51
55 235 51
59 235 51
63 235 51
67 235 51
71 235 51
75 235 51
79 235 51
83 235 51
87 235 51
91 235 51
95 235 51
99 235 51
103 235 51
107 235 51
111 235 51
115 235 51
119 235 51
123 235 51
127 235 51
131 235 51
135 235 51
139 235 51
143 235 51
147 235 51
151 235 51
155 235 51
159 235 51
163 235 51
167 235 51
171 235 51
175 235 51
179 235 51
183 235 51
187 235 51
191 235 51
195 235 51
199 235 51
203 235 51
207 235 51
211 235 51
215 235 51
219 235 51
223 235 51
227 235 51
231 235 51
235 235 51
239 235 51
243 235 51
247 235 51
251 235 51
0 231 51
3 231 51
7 231 51
11 231 51
15 231 51
19 231 51
23 231 51
27 231 51
31 231 51
35 231 51
39 231 51
43 231 51
47 231 51
51 231 51
55 231 51
59 231 51
63 231 51
67 231 51
71 231 51
75 231 51
79 231 51
83 231 51
87 231 51
91 231 51
95 231 51
99 231 51
103 231 51
107 231 51
111 231 51
115 231 51
119 231 51
123 231 51
127 231 51
131 231 51
135 231 51
139 231 51
143 231 51
147 231 51
151 231 51
155 231 51
159 231 51
163 231 51
167 231 51
171 231 51
175 231 51
179 231 51
183 231 51
187 231 51
191 231 51
195 231 51
199 231 51
203 231 51
207 231 51
211 231 51
215 231 51
219 231 51
223 231 51
227 231 51
231 231 51
235 231 51
239 231 51
243 231 51
247 231 51
251 231 51
0 227 51
3 227 51
7 227 51
11 227 51
15 227 51
19 227 51
23 227 51
27 227 51
31 227 51
35 227 51
39 227 51
43 227 51
47 227 51
51 227 51
55 227 51
59 227 51
63 227 51
67 227 51
71 227 51
75 227 51
79 227 51
83 227 51
87 227 51
91 227 51
95 227 51
99 227 51
103 227 51
107 227 51
111 227 51
115 227 51
119 227 51
123 227 51
127 227 51
131 227 51
135 227 51
139 227 51
143 227 51
147 227 51
151 227 51
155 227 51
159 227 51
163 227 51
167 227 51
171 227 51
175 227 51
179 227 51
183 227 51
187 227 51
191 227 51
195 227 51
199 227 51
203 227 51
207 227 51
211 227 51
215 227 51
219 227 51
223 227 51
227 227 51
231 227 51
235 227 51
239 227 51
243 227 51
247 227 51
251 227 51
0 223 51
3 223 51
7 223 51
11 223 51
15 223 51
19 223 51
23 223 51
27 223 51
31 223 51
35 223 51
39 223 51
43 223 51
47 223 51
51 223 51
55 223 51
59 223 51
63 223 51
67 223 51
71 223 51
75 223 51
79 223 51
83 223 51
87 223 51
91 223 51
95 223 51
99 223 51
103 223 51
107 223 51
111 223 51
115 223 51
119 223 51
123 223 51
127 223 51
131 223 51
135 223 51
139 223 51
143 223 51
147 223 51
151 223 51
155 223 51
159 223 51
163 223 51
167 223 51
171 223 51
175 223 51
179 223 51
183 223 51
187 223 51
191 223 51
195 223 51
199 223 51
203 223 51
207 223 51
211 223 51
215 223 51
219 223 51
223 223 51
227 223 51
231 223 51
235 223 51
239 223 51
243 223 51
247 223 51
251 223 51
0 219 51
3 219 51
7 219 51
11 219 51
15 219 51
19 219 51
23 219 51
27 219 51
31 219 51
35 219 51
39 219 51
43 219 51
47 219 51
51 219 51
55 219 51
59 219 51
63 219 51
67 219 51
71 219 51
75 219 51
79 219 51
83 219 51
87 219 51
91 219 51
95 219 51
99 219 51
103 219 51
107 219 51
111 219 51
115 219 51
119 219 51
123 219 51
127 219 51
131 219 51
135 219 51
139 219 51
143 219 51
147 219 51
151 219 51
155 219 51
159 219 51
163 219 51
167 219 51
171 219 51
175 219 51
179 219 51
183 219 51
187 219 51
191 219 51
195 219 51
199 219 51
203 219 51
207 219 51
211 219 51
215 219 51
219 219 51
223 219 51
227 219 51
231 219 51
235 219 51
239 219 51
243 219 51
247 219 51
251 219 51
0 215 51
3 215 51
7 215 51
11 215 51
15 215 51
19 215 51
23 215 51
27 215 51
31 215 51
35 215 51
39 215 51
43 215 51
47 215 51
51 215 51
55 215 51
59 215 51
63 215 51
67 215 51
71 215 51
75 215 51
79 215 51
83 215 51
87 215 51
91 215 51
95 215 51
99 215 51
103 215 51
107 215 51
111 215 51
115 215 51
119 215 51
123 215 51
127 215 51
131 215 51
135 215 51
139 215 51
143 215 51
147 215 51
151 215 51
155 215 51
159 215 51
163 215 51
167 215 51
171 215 51
175 215 51
179 215 51
183 215 51
187 215 51
191 215 51
195 215 51
199 215 51
203 215 51
207 215 51
211 215 51
215 215 51
219 215 51
223 215 51
227 215 51
231 215 51
235 215 51
239 215 51
243 215 51
247 215 51
251 215 51
0 211 51
3 211 51
7 211 51
11 211 51
15 211 51
19 211 51
23 211 51
27 211 51
31 211 51
35 211 51
39 211 51
43 211 51
47 211 51
51 211 51
55 211 51
59 211 51
63 211 51
67 211 51
71 211 51
75 211 51
79 211 51
83 211 51
87 211 51
91 211 51
95 211 51
99 211 51
103 211 51
107 211 51
111 211 51
115 211 51
119 211 51
123 211 51
127 211 51
131 211 51
135 211 51
139 211 51
143 211 51
147 211 51
151 211 51
155 211 51
159 211 51
163 211 51
167 211 51
171 211 51
175 211 51
179 211 51
183 211 51
187 211 51
191 211 51
195 211 51
199 211 51
203 211 51
207 211 51
211 211 51
215 211 51
219 211 51
223 211 51
227 211 51
231 211 51
235 211 51
239 211 51
243 211 51
247 211 51
251 211 51
0 207 51
3 207 51
7 207 51
11 207 51
15 207 51
19 207 51
23 207 51
27 207 51
31 207 51
35 207 51
39 207 51
43 207 51
47 207 51
51 207 51
55 207 51
59 207 51
63 207 51
67 207 51
71 207 51
75 207 51
79 207 51
83 207 51
87 207 51
91 207 51
95 207 51
99 207 51
103 207 51
107 207 51
111 207 51
115 207 51
119 207 51
123 207 51
127 207 51
131 207 51
135 207 51
139 207 51
143 207 51
147 207 51
151 207 51
155 207 51
159 207 51
163 207 51
167 207 51
171 207 51
175 207 51
179 207 51
183 207 51
187 207 51
191 207 51
195 207 51
199 207 51
203 207 51
207 207 51
211 207 51
215 207 51
219 207 51
223 207 51
227 207 51
231 207 51
235 207 51
239 207 51
243 207 51
247 207 51
251 207 51
0 203 51
3 203 51
7 203 51
11 203 51
15 203 51
19 203 51
23 203 51
27 203 51
31 203 51
35 203 51
39 203 51
43 203 51
47 203 51
51 203 51
55 203 51
59 203 51
63 203 51
67 203 51
71 203 51
75 203 51
79 203 51
83 203 51
87 203 51
91 203 51
95 203 51
99 203 51
103 203 51
107 203 51
111 203 51
115 203 51
119 203 51
123 203 51
127 203 51
131 203 51
135 203 51
139 203 51
143 203 51
147 203 51
151 203 51
155 203 51
159 203 51
163 203 51
167 203 51
171 203 51
175 203 51
179 203 51
183 203 51
187 203 51
191 203 51
195 203 51
199 203 51
203 203 51
207 203 51
211 203 51
215 203 51
219 203 51
223 203 51
227 203 51
231 203 51
235 203 51
239 203 51
243 203 51
247 203 51
251 203 51
0 199 51
3 199 51
7 199 51
11 199 51
15 199 51
19 199 51
23 199 51
27 199 51
31 199 51
35 199 51
39 199 51
43 199 51
47 199 51
51 199 51
55 199 51
59 199 51
63 199 51
67 199 51
71 199 51
75 199 51
79 199 51
83 199 51
87 199 51
91 199 51
95 199 51
99 199 51
103 199 51
107 199 51
111 199 51
115 199 51
119 199 51
123 199 51
127 199 51
131 199 51
135 199 51
139 199 51
143 199 51
147 199 51
151 199 51
155 199 51
159 199 51
163 199 51
167 199 51
171 199 51
175 199 51
179 199 51
183 199 51
187 199 51
191 199 51
195 199 51
199 199 51
203 199 51
207 199 51
211 199 51
215 199 51
219 199 51
223 199 51
227 199 51
231 199 51
235 199 51
239 199 51
243 199 51
247 199 51
251 199 51
0 195 51
3 195 51
7 195 51
11 195 51
15 195 51
19 195 51
23 195 51
27 195 51
31 195 51
35 195 51
39 195 51
43 195 51
47 195 51
51 195 51
55 195 51
59 195 51
63 195 51
67 195 51
71 195 51
75 195 51
79 195 51
83 195 51
87 195 51
91 195 51
95 195 51
99 195 51
103 195 51
107 195 51
111 195 51
115 195 51
119 195 51
123 195 51
127 195 51
131 195 51
135 195 51
139 195 51
143 195 51
147 195 51
151 195 51
155 195 51
159 195 51
163 195 51
167 195 51
171 195 51
175 195 51
179 195 51
183 195 51
187 195 51
191 195 51
195 195 51
199 195 51
203 195 51
207 195 51
211 195 51
215 195 51
219 195 51
223 195 51
227 195 51
231 195 51
235 195 51
239 195 51
243 195 51
247 195 51
251 195 51
0 191 51
3 191 51
7 191 51
11 191 51
15 191 51
19 191 51
23 191 51
27 191 51
31 191 51
35 191 51
39 191 51
43 191 51
47 191 51
51 191 51
55 191 51
59 191 51
63 191 51
67 191 51
71 191 51
75 191 51
79 191 51
83 191 51
87 191 51
91 191 51
95 191 51
99 191 51
103 191 51
107 191 51
111 191 51
115 191 51
119 191 51
123 191 51
127 191 51
131 191 51
135 191 51
139 191 51
143 191 51
147 191 51
151 191 51
155 191 51
159 191 51
163 191 51
167 191 51
171 191 51
175 191 51
179 191 51
183 191 51
187 191 51
191 191 51
195 191 51
199 191 51
203 191 51
207 191 51
211 191 51
215 191 51
219 191 51
223 191 51
227 191 51
231 191 51
235 191 51
239 191 51
243 191 51
247 191 51
251 191 51
0 187 51
3 187 51
7 187 51
11 187 51
15 187 51
19 187 51
23 187 51
27 187 51
31 187 51
35 187 51
39 187 51
43 187 51
47 187 51
51 187 51
55 187 51
59 187 51
63 187 51
67 187 51
71 187 51
75 187 51
79 187 51
83 187 51
87 187 51
91 187 51
95 187 51
99 187 51
103 187 51
107 187 51
111 187 51
115 187 51
119 187 51
123 187 51
127 187 51
131 187 51
135 187 51
139 187 51
143 187 51
147 187 51
151 187 51
155 187 51
159 187 51
163 187 51
167 187 51
171 187 51
175 187 51
179 187 51
183 187 51
187 187 51
191 187 51
195 187 51
199 187 51
203 187 51
207 187 51
211 187 51
215 187 51
219 187 51
223 187 51
227 187 51
231 187 51
235 187 51
239 187 51
243 187 51
247 187 51
251 187 51
0 183 51
3 183 51
7 183 51
11 183 51
15 183 51
19 183 51
23 183 51
27 183 51
31 183 51
35 183 51
39 183 51
43 183 51
47 183 51
51 183 51
55 183 51
59 183 51
63 183 51
67 183 51
71 183 51
75 183 51
79 183 51
83 183 51
87 183 51
91 183 51
95 183 51
99 183 51
103 183 51
107 183 51
111 183 51
115 183 51
119 183 51
123 183 51
127 183 51
131 183 51
135 183 51
139 183 51
143 183 51
147 183 51
151 183 51
155 183 51
159 183 51
163 183 51
167 183 51
171 183 51
175 183 51
179 183 51
183 183 51
187 183 51
191 183 51
195 183 51
199 183 51
203 183 51
207 183 51
211 183 51
215 183 51
219 183 51
223 183 51
227 183 51
231 183 51
235 183 51
239 183 51
243 183 51
247 183 51
251 183 51
0 179 51
3 179 51
7 179 51
11 179 51
15 179 51
19 179 51
23 179 51
27 179 51
31 179 51
35 179 51
39 179 51
43 179 51
47 179 51
51 179 51
55 179 51
59 179 51
63 179 51
67 179 51
71 179 51
75 179 51
79 179 51
83 179 51
87 179 51
91 179 51
95 179 51
99 179 51
103 179 51
107 179 51
111 179 51
115 179 51
119 179 51
123 179 51
127 179 51
131 179 51
135 179 51
139 179 51
143 179 51
147 179 51
151 179 51
155 179 51
159 179 51
163 179 51
167 179 51
171 179 51
175 179 51
179 179 51
183 179 51
187 179 51
191 179 51
195 179 51
199 179 51
203 179 51
207 179 51
211 179 51
215 179 51
219 179 51
223 179 51
227 179 51
231 179 51
235 179 51
239 179 51
243 179 51
247 179 51
251 179 51
0 175 51
3 175 51
7 175 51
11 175 51
15 175 51
19 175 51
23 175 51
27 175 51
31 175 51
35 175 51
39 175 51
43 175 51
47 175 51
51 175 51
55 175 51
59 175 51
63 175 51
67 175 51
71 175 51
75 175 51
79 175 51
83 175 51
87 175 51
91 175 51
95 175 51
99 175 51
103 175 51
107 175 51
111 175 51
115 175 51
119 175 51
123 175 51
127 175 51
131 175 51
135 175 51
139 175 51
143 175 51
147 175 51
151 175 51
155 175 51
159 175 51
163 175 51
167 175 51
171 175 51
175 175 51
179 175 51
183 175 51
187 175 51
191 175 51
195 175 51
199 175 51
203 175 51
207 175 51
211 175 51
215 175 51
219 175 51
223 175 51
227 175 51
231 175 51
235 175 51
239 175 51
243 175 51
247 175 51
251 175 51
0 171 51
3 171 51
7 171 51
11 171 51
15 171 51
19 171 51
23 171 51
27 171 51
31 171 51
35 171 51
39 171 51
43 171 51
47 171 51
51 171 51
55 171 51
59 171 51
63 171 51
67 171 51
71 171 51
75 171 51
79 171 51
83 171 51
87 171 51
91 171 51
95 171 51
99 171 51
103 171 51
107 171 51
111 171 51
115 171 51
119 171 51
123 171 51
127 171 51
131 171 51
135 171 51
139 171 51
143 171 51
147 171 51
151 171 51
155 171 51
159 171 51
163 171 51
167 171 51
171 171 51
175 171 51
179 171 51
183 171 51
187 171 51
191 171 51
195 171 51
199 171 51
203 171 51
207 171 51
211 171 51
215 171 51
219 171 51
223 171 51
227 171 51
231 171 51
235 171 51
239 171 51
243 171 51
247 171 51
251 171 51
0 167 51
3 167 51
7 167 51
11 167 51
15 167 51
19 167 51
23 167 51
27 167 51
31 167 51
35 167 51
39 167 51
43 167 51
47 167 51
51 167 51
55 167 51
59 167 51
63 167 51
67 167 51
71 167 51
75 167 51
79 167 51
83 167 51
87 167 51
91 167 51
95 167 51
99 167 51
103 167 51
107 167 51
111 167 51
115 167 51
119 167 51
123 167 51
127 167 51
131 167 51
135 167 51
139 167 51
143 167 51
147 167 51
151 167 51
155 167 51
159 167 51
163 167 51
167 167 51
171 167 51
175 167 51
179 167 51
183 167 51
187 167 51
191 167 51
195 167 51
199 167 51
203 167 51
207 167 51
211 167 51
215 167 51
219 167 51
223 167 51
227 167 51
231 167 51
235 167 51
239 167 51
243 167 51
247 167 51
251 167 51
0 163 51
3 163 51
7 163 51
11 163 51
15 163 51
19 163 51
23 163 51
27 163 51
31 163 51
35 163 51
39 163 51
43 163 51
47 163 51
51 163 51
55 163 51
59 163 51
63 163 51
67 163 51
71 163 51
75 163 51
79 163 51
83 163 51
87 163 51
91 163 51
95 163 51
99 163 51
103 163 51
107 163 51
111 163 51
115 163 51
119 163 51
123 163 51
127 163 51
131 163 51
135 163 51
139 163 51
143 163 51
147 163 51
151 163 51
155 163 51
159 163 51
163 163 51
167 163 51
171 163 51
175 163 51
179 163 51
183 163 51
187 163 51
191 163 51
195 163 51
199 163 51
203 163 51
207 163 51
211 163 51
215 163 51
219 163 51
223 163 51
227 163 51
231 163 51
235 163 51
239 163 51
243 163 51
247 163 51
251 163 51
0 159 51
3 159 51
7 159 51
11 159 51
15 159 51
19 159 51
23 159 51
27 159 51
31 159 51
35 159 51
39 159 51
43 159 51
47 159 51
51 159 51
55 159 51
59 159 51
63 159 51
67 159 51
71 159 51
75 159 51
79 159 51
83 159 51
87 159 51
91 159 51
95 159 51
99 159 51
103 159 51
107 159 51
111 159 51
115 159 51
119 159 51
123 159 51
127 159 51
131 159 51
135 159 51
139 159 51
143 159 51
147 159 51
151 159 51
155 159 51
159 159 51
163 159 51
167 159 51
171 159 51
175 159 51
179 159 51
183 159 51
187 159 51
191 159 51
195 159 51
199 159 51
203 159 51
207 159 51
211 159 51
215 159 51
219 159 51
223 159 51
227 159 51
231 159 51
235 159 51
239 159 51
243 159 51
247 159 51
251 159 51
0 155 51
3 155 51
7 155 51
11 155 51
15 155 51
19 155 51
23 155 51
27 155 51
31 155 51
35 155 51
39 155 51
43 155 51
47 155 51
51 155 51
55 155 51
59 155 51
63 155 51
67 155 51
71 155 51
75 155 51
79 155 51
83 155 51
87 155 51
91 155 51
95 155 51
99 155 51
103 155 51
107 155 51
111 155 51
115 155 51
119 155 51
123 155 51
127 155 51
131 155 51
135 155 51
139 155 51
143 155 51
147 155 51
151 155 51
155 155 51
159 155 51
163 155 51
167 155 51
171 155 51
175 155 51
179 155 51
183 155 51
187 155 51
191 155 51
195 155 51
199 155 51
203 155 51
207 155 51
211 155 51
215 155 51
219 155 51
223 155 51
227 155 51
231 155 51
235 155 51
239 155 51
243 155 51
247 155 51
251 155 51
0 151 51
3 151 51
7 151 51
11 151 51
15 151 51
19 151 51
23 151 51
27 151 51
31 151 51
35 151 51
39 151 51
43 151 51
47 151 51
51 151 51
55 151 51
59 151 51
63 151 51
67 151 51
71 151 51
75 151 51
79 151 51
83 151 51
87 151 51
91 151 51
95 151 51
99 151 51
103 151 51
107 151 51
111 151 51
115 151 51
119 151 51
123 151 51
127 151 51
131 151 51
135 151 51
139 151 51
143 151 51
147 151 51
151 151 51
155 151 51
159 151 51
163 151 51
167 151 51
171 151 51
175 151 51
179 151 51
183 151 51
187 151 51
191 151 51
195 151 51
199 151 51
203 151 51
207 151 51
211 151 51
215 151 51
219 151 51
223 151 51
227 151 51
231 151 51
235 151 51
239 151 51
243 151 51
247 151 51
251 151 51
0 147 51
3 147 51
7 147 51
11 147 51
15 147 51
19 147 51
23 147 51
27 147 51
31 147 51
35 147 51
39 147 51
43 147 51
47 147 51
51 147 51
55 147 51
59 147 51
63 147 51
67 147 51
71 147 51
75 147 51
79 147 51
83 147 51
87 147 51
91 147 51
95 147 51
99 147 51
103 147 51
107 147 51
111 147 51
115 147 51
119 147 51
123 147 51
127 147 51
131 147 51
135 147 51
139 147 51
143 147 51
147 147 51
151 147 51
155 147 51
159 147 51
163 147 51
167 147 51
171 147 51
175 147 51
179 147 51
183 147 51
187 147 51
191 147 51
195 147 51
199 147 51
203 147 51
207 147 51
211 147 51
215 147 51
219 147 51
223 147 51
227 147 51
231 147 51
235 147 51
239 147 51
243 147 51
247 147 51
251 147 51
0 143 51
3 143 51
7 143 51
11 143 51
15 143 51
19 143 51
23 143 51
27 143 51
31 143 51
35 143 51
39 143 51
43 143 51
47 143 51
51 143 51
55 143 51
59 143 51
63 143 51
67 143 51
71 143 51
75 143 51
79 143 51
83 143 51
87 143 51
91 143 51
95 143 51
99 143 51
103 143 51
107 143 51
111 143 51
115 143 51
119 143 51
123 143 51
127 143 51
131 143 51
135 143 51
139 143 51
143 143 51
147 143 51
151 143 51
155 143 51
159 143 51
163 143 51
167 143 51
171 143 51
175 143 51
179 143 51
183 143 51
187 143 51
191 143 51
195 143 51
199 143 51
203 143 51
207 143 51
211 143 51
215 143 51
219 143 51
223 143 51
227 143 51
231 143 51
235 143 51
239 143 51
243 143 51
247 143 51
251 143 51
0 139 51
3 139 51
7 139 51
11 139 51
15 139 51
19 139 51
23 139 51
27 139 51
31 139 51
35 139 51
39 139 51
43 139 51
47 139 51
51 139 51
55 139 51
59 139 51
63 139 51
67 139 51
71 139 51
75 139 51
79 139 51
83 139 51
87 139 51
91 139 51
95 139 51
99 139 51
103 139 51
107 139 51
111 139 51
115 139 51
119 139 51
123 139 51
127 139 51
131 139 51
135 139 51
139 139 51
143 139 51
147 139 51
151 139 51
155 139 51
159 139 51
163 139 51
167 139 51
171 139 51
175 139 51
179 139 51
183 139 51
187 139 51
191 139 51
195 139 51
199 139 51
203 139 51
207 139 51
211 139 51
215 139 51
219 139 51
223 139 51
227 139 51
231 139 51
235 139 51
239 139 51
243 139 51
247 139 51
251 139 51
0 135 51
3 135 51
7 135 51
11 135 51
15 135 51
19 135 51
23 135 51
27 135 51
31 135 51
35 135 51
39 135 51
43 135 51
47 135 51
51 135 51
55 135 51
59 135 51
63 135 51
67 135 51
71 135 51
75 135 51
79 135 51
83 135 51
87 135 51
91 135 51
95 135 51
99 135 51
103 135 51
107 135 51
111 135 51
115 135 51
119 135 51
123 135 51
127 135 51
131 135 51
135 135 51
139 135 51
143 135 51
147 135 51
151 135 51
155 135 51
159 135 51
163 135 51
167 135 51
171 135 51
175 135 51
179 135 51
183 135 51
187 135 51
191 135 51
195 135 51
199 135 51
203 135 51
207 135 51
211 135 51
215 135 51
219 135 51
223 135 51
227 135 51
231 135 51
235 135 51
239 135 51
243 135 51
247 135 51
251 135 51
0 131 51
3 131 51
7 131 51
11 131 51
15 131 51
19 131 51
23 131 51
27 131 51
31 131 51
35 131 51
39 131 51
43 131 51
47 131 51
51 131 51
55 131 51
59 131 51
63 131 51
67 131 51
71 131 51
75 131 51
79 131 51
83 131 51
87 131 51
91 131 51
95 131 51
99 131 51
103 131 51
107 131 51
111 131 51
115 131 51
119 131 51
123 131 51
127 131 51
131 131 51
135 131 51
139 131 51
143 131 51
147 131 51
151 131 51
155 131 51
159 131 51
163 131 51
167 131 51
171 131 51
175 131 51
179 131 51
183 131 51
187 131 51
191 131 51
195 131 51
199 131 51
203 131 51
207 131 51
211 131 51
215 131 51
219 131 51
223 131 51
227 131 51
231 131 51
235 131 51
239 131 51
243 131 51
247 131 51
251 131 51
0 127 51
3 127 51
7 127 51
11 127 51
15 127 51
19 127 51
23 127 51
27 127 51
31 127 51
35 127 51
39 127 51
43 127 51
47 127 51
51 127 51
55 127 51
59 127 51
63 127 51
67 127 51
71 127 51
75 127 51
79 127 51
83 127 51
87 127 51
91 127 51
95 127 51
99 127 51
103 127 51
107 127 51
111 127 51
115 127 51
119 127 51
123 127 51
127 127 51
131 127 51
135 127 51
139 127 51
143 127 51
147 127 51
151 127 51
155 127 51
159 127 51
163 127 51
167 127 51
171 127 51
175 127 51
179 127 51
183 127 51
187 127 51
191 127 51
195 127 51
199 127 51
203 127 51
207 127 51
211 127 51
215 127 51
219 127 51
223 127 51
227 127 51
231 127 51
235 127 51
239 127 51
243 127 51
247 127 51
251 127 51
0 123 51
3 123 51
7 123 51
11 123 51
15 123 51
19 123 51
23 123 51
27 123 51
31 123 51
35 123 51
39 123 51
43 123 51
47 123 51
51 123 51
55 123 51
59 123 51
63 123 51
67 123 51
71 123 51
75 123 51
79 123 51
83 123 51
87 123 51
91 123 51
95 123 51
99 123 51
103 123 51
107 123 51
111 123 51
115 123 51
119 123 51
123 123 51
127 123 51
131 123 51
135 123 51
139 123 51
143 123 51
147 123 51
151 123 51
155 123 51
159 123 51
163 123 51
167 123 51
171 123 51
175 123 51
179 123 51
183 123 51
187 123 51
191 123 51
195 123 51
199 123 51
203 123 51
207 123 51
211 123 51
215 123 51
219 123 51
223 123 51
227 123 51
231 123 51
235 123 51
239 123 51
243 123 51
247 123 51
251 123 51
0 119 51
3 119 51
7 119 51
11 119 51
15 119 51
19 119 51
23 119 51
27 119 51
31 119 51
35 119 51
39 119 51
43 119 51
47 119 51
51 119 51
55 119 51
59 119 51
63 119 51
67 119 51
71 119 51
75 119 51
79 119 51
83 119 51
87 119 51
91 119 51
95 119 51
99 119 51
103 119 51
107 119 51
111 119 51
115 119 51
119 119 51
123 119 51
127 119 51
131 119 51
135 119 51
139 119 51
143 119 51
147 119 51
151 119 51
155 119 51
159 119 51
163 119 51
167 119 51
171 119 51
175 119 51
179 119 51
183 119 51
187 119 51
191 119 51
195 119 51
199 119 51
203 119 51
207 119 51
211 119 51
215 119 51
219 119 51
223 119 51
227 119 51
231 119 51
235 119 51
239 119 51
243 119 51
247 119 51
251 119 51
0 115 51
3 115 51
7 115 51
11 115 51
15 115 51
19 115 51
23 115 51
27 115 51
31 115 51
35 115 51
39 115 51
43 115 51
47 115 51
51 115 51
55 115 51
59 115 51
63 115 51
67 115 51
71 115 51
75 115 51
79 115 51
83 115 51
87 115 51
91 115 51
95 115 51
99 115 51
103 115 51
107 115 51
111 115 51
115 115 51
119 115 51
123 115 51
127 115 51
131 115 51
135 115 51
139 115 51
143 115 51
147 115 51
151 115 51
155 115 51
159 115 51
163 115 51
167 115 51
171 115 51
175 115 51
179 115 51
183 115 51
187 115 51
191 115 51
195 115 51
199 115 51
203 115 51
207 115 51
211 115 51
215 115 51
219 115 51
223 115 51
227 115 51
231 115 51
235 115 51
239 115 51
243 115 51
247 115 51
251 115 51
0 111 51
3 111 51
7 111 51
11 111 51
15 111 51
19 111 51
23 111 51
27 111 51
31 111 51
35 111 51
39 111 51
43 111 51
47 111 51
51 111 51
55 111 51
59 111 51
63 111 51
67 111 51
71 111 51
75 111 51
79 111 51
83 111 51
87 111 51
91 111 51
95 111 51
99 111 51
103 111 51
107 111 51
111 111 51
115 111 51
119 111 51
123 111 51
127 111 51
131 111 51
135 111 51
139 111 51
143 111 51
147 111 51
151 111 51
155 111 51
159 111 51
163 111 51
167 111 51
171 111 51
175 111 51
179 111 51
183 111 51
187 111 51
191 111 51
195 111 51
199 111 51
203 111 51
207 111 51
211 111 51
215 111 51
219 111 51
223 111 51
227 111 51
231 111 51
235 111 51
239 111 51
243 111 51
247 111 51
251 111 51
0 107 51
3 107 51
7 107 51
11 107 51
15 107 51
19 107 51
23 107 51
27 107 51
31 107 51
35 107 51
39 107 51
43 107 51
47 107 51
51 107 51
55 107 51
59 107 51
63 107 51
67 107 51
71 107 51
75 107 51
79 107 51
83 107 51
87 107 51
91 107 51
95 107 51
99 107 51
103 107 51
107 107 51
111 107 51
115 107 51
119 107 51
123 107 51
127 107 51
131 107 51
135 107 51
139 107 51
143 107 51
147 107 51
151 107 51
155 107 51
159 107 51
163 107 51
167 107 51
171 107 51
175 107 51
179 107 51
183 107 51
187 107 51
191 107 51
195 107 51
199 107 51
203 107 51
207 107 51
211 107 51
215 107 51
219 107 51
223 107 51
227 107 51
231 107 51
235 107 51
239 107 51
243 107 51
247 107 51
251 107 51
0 103 51
3 103 51
7 103 51
11 103 51
15 103 51
19 103 51
23 103 51
27 103 51
31 103 51
35 103 51
39 103 51
43 103 51
47 103 51
51 103 51
55 103 51
59 103 51
63 103 51
67 103 51
71 103 51
75 103 51
79 103 51
83 103 51
87 103 51
91 103 51
95 103 51
99 103 51
103 103 51
107 103 51
111 103 51
115 103 51
119 103 51
123 103 51
127 103 51
131 103 51
135 103 51
139 103 51
143 103 51
147 103 51
151 103 51
155 103 51
159 103 51
163 103 51
167 103 51
171 103 51
175 103 51
179 103 51
183 103 51
187 103 51
191 103 51
195 103 51
199 103 51
203 103 51
207 103 51
211 103 51
215 103 51
219 103 51
223 103 51
227 103 51
231 103 51
235 103 51
239 103 51
243 103 51
247 103 51
251 103 51
0 99 51
3 99 51
7 99 51
11 99 51
15 99 51
19 99 51
23 99 51
27 99 51
31 99 51
35 99 51
39 99 51
43 99 51
47 99 51
51 99 51
55 99 51
59 99 51
63 99 51
67 99 51
71 99 51
75 99 51
79 99 51
83 99 51
87 99 51
91 99 51
95 99 51
99 99 51
103 99 51
107 99 51
111 99 51
115 99 51
119 99 51
123 99 51
127 99 51
131 99 51
135 99 51
139 99 51
143 99 51
147 99 51
151 99 51
155 99 51
159 99 51
163 99 51
167 99 51
171 99 51
175 99 51
179 99 51
183 99 51
187 99 51
191 99 51
195 99 51
199 99 51
203 99 51
207 99 51
211 99 51
215 99 51
219 99 51
223 99 51
227 99 51
231 99 51
235 99 51
239 99 51
243 99 51
247 99 51
251 99 51
0 95 51
3 95 51
7 95 51
11 95 51
15 95 51
19 95 51
23 95 51
27 95 51
31 95 51
35 95 51
39 95 51
43 95 51
47 95 51
51 95 51
55 95 51
59 95 51
63 95 51
67 95 51
71 95 51
75 95 51
79 95 51
83 95 51
87 95 51
91 95 51
95 95 51
99 95 51
103 95 51
107 95 51
111 95 51
115 95 51
119 95 51
123 95 51
127 95 51
131 95 51
135 95 51
139 95 51
143 95 51
147 95 51
151 95 51
155 95 51
159 95 51
163 95 51
167 95 51
171 95 51
175 95 51
179 95 51
183 95 51
187 95 51
191 95 51
195 95 51
199 95 51
203 95 51
207 95 51
211 95 51
215 95 51
219 95 51
223 95 51
227 95 51
231 95 51
235 95 51
239 95 51
243 95 51
247 95 51
251 95 51
0 91 51
3 91 51
7 91 51
11 91 51
15 91 51
19 91 51
23 91 51
27 91 51
31 91 51
35 91 51
39 91 51
43 91 51
47 91 51
51 91 51
55 91 51
59 91 51
63 91 51
67 91 51
71 91 51
75 91 51
79 91 51
83 91 51
87 91 51
91 91 51
95 91 51
99 91 51
103 91 51
107 91 51
111 91 51
115 91 51
119 91 51
123 91 51
127 91 51
131 91 51
135 91 51
139 91 51
143 91 51
147 91 51
151 91 51
155 91 51
159 91 51
163 91 51
167 91 51
171 91 51
175 91 51
179 91 51
183 91 51
187 91 51
191 91 51
195 91 51
199 91 51
203 91 51
207 91 51
211 91 51
215 91 51
219 91 51
223 91 51
227 91 51
231 91 51
235 91 51
239 91 51
243 91 51
247 91 51
251 91 51
0 87 51
3 87 51
7 87 51
11 87 51
15 87 51
19 87 51
23 87 51
27 87 51
31 87 51
35 87 51
39 87 51
43 87 51
47 87 51
51 87 51
55 87 51
59 87 51
63 87 51
67 87 51
71 87 51
75 87 51
79 87 51
83 87 51
87 87 51
91 87 51
95 87 51
99 87 51
103 87 51
107 87 51
111 87 51
115 87 51
119 87 51
123 87 51
127 87 51
131 87 51
135 87 51
139 87 51
143 87 51
147 87 51
151 87 51
155 87 51
159 87 51
163 87 51
167 87 51
171 87 51
175 87 51
179 87 51
183 87 51
187 87 51
191 87 51
195 87 51
199 87 51
203 87 51
207 87 51
211 87 51
215 87 51
219 87 51
223 87 51
227 87 51
231 87 51
235 87 51
239 87 51
243 87 51
247 87 51
251 87 51
0 83 51
3 83 51
7 83 51
11 83 51
15 83 51
19 83 51
23 83 51
27 83 51
31 83 51
35 83 51
39 83 51
43 83 51
47 83 51
51 83 51
55 83 51
59 83 51
63 83 51
67 83 51
71 83 51
75 83 51
79 83 51
83 83 51
87 83 51
91 83 51
95 83 51
99 83 51
103 83 51
107 83 51
111 83 51
115 83 51
119 83 51
123 83 51
127 83 51
131 83 51
135 83 51
139 83 51
143 83 51
147 83 51
151 83 51
155 83 51
159 83 51
163 83 51
167 83 51
171 83 51
175 83 51
179 83 51
183 83 51
187 83 51
191 83 51
195 83 51
199 83 51
203 83 51
207 83 51
211 83 51
215 83 51
219 83 51
223 83 51
227 83 51
231 83 51
235 83 51
239 83 51
243 83 51
247 83 51
251 83 51
0 79 51
3 79 51
7 79 51
11 79 51
15 79 51
19 79 51
23 79 51
27 79 51
31 79 51
35 79 51
39 79 51
43 79 51
47 79 51
51 79 51
55 79 51
59 79 51
63 79 51
67 79 51
71 79 51
75 79 51
79 79 51
83 79 51
87 79 51
91 79 51
95 79 51
99 79 51
103 79 51
107 79 51
111 79 51
115 79 51
119 79 51
123 79 51
127 79 51
131 79 51
135 79 51
139 79 51
143 79 51
147 79 51
151 79 51
155 79 51
159 79 51
163 79 51
167 79 51
171 79 51
175 79 51
179 79 51
183 79 51
187 79 51
191 79 51
195 79 51
199 79 51
203 79 51
207 79 51
211 79 51
215 79 51
219 79 51
223 79 51
227 79 51
231 79 51
235 79 51
239 79 51
243 79 51
247 79 51
251 79 51
0 75 51
3 75 51
7 75 51
11 75 51
15 75 51
19 75 51
23 75 51
27 75 51
31 75 51
35 75 51
39 75 51
43 75 51
47 75 51
51 75 51
55 75 51
59 75 51
63 75 51
67 75 51
71 75 51
75 75 51
79 75 51
83 75 51
87 75 51
91 75 51
95 75 51
99 75 51
103 75 51
107 75 51
111 75 51
115 75 51
119 75 51
123 75 51
127 75 51
131 75 51
135 75 51
139 75 51
143 75 51
147 75 51
151 75 51
155 75 51
159 75 51
163 75 51
167 75 51
171 75 51
175 75 51
179 75 51
183 75 51
187 75 51
191 75 51
195 75 51
199 75 51
203 75 51
207 75 51
211 75 51
215 75 51
219 75 51
223 75 51
227 75 51
231 75 51
235 75 51
239 75 51
243 75 51
247 75 51
251 75 51
0 71 51
3 71 51
7 71 51
11 71 51
15 71 51
19 71 51
23 71 51
27 71 51
31 71 51
35 71 51
39 71 51
43 71 51
47 71 51
51 71 51
55 71 51
59 71 51
63 71 51
67 71 51
71 71 51
75 71 51
79 71 51
83 71 51
87 71 51
91 71 51
95 71 51
99 71 51
103 71 51
107 71 51
111 71 51
115 71 51
119 71 51
123 71 51
127 71 51
131 71 51
135 71 51
139 71 51
143 71 51
147 71 51
151 71 51
155 71 51
159 71 51
163 71 51
167 71 51
171 71 51
175 71 51
179 71 51
183 71 51
187 71 51
191 71 51
195 71 51
199 71 51
203 71 51
207 71 51
211 71 51
215 71 51
219 71 51
223 71 51
227 71 51
231 71 51
235 71 51
239 71 51
243 71 51
247 71 51
251 71 51
0 67 51
3 67 51
7 67 51
11 67 51
15 67 51
19 67 51
23 67 51
27 67 51
31 67 51
35 67 51
39 67 51
43 67 51
47 67 51
51 67 51
55 67 51
59 67 51
63 67 51
67 67 51
71 67 51
75 67 51
79 67 51
83 67 51
87 67 51
91 67 51
95 67 51
99 67 51
103 67 51
107 67 51
111 67 51
115 67 51
119 67 51
123 67 51
127 67 51
131 67 51
135 67 51
139 67 51
143 67 51
147 67 51
151 67 51
155 67 51
159 67 51
163 67 51
167 67 51
171 67 51
175 67 51
179 67 51
183 67 51
187 67 51
191 67 51
195 67 51
199 67 51
203 67 51
207 67 51
211 67 51
215 67 51
219 67 51
223 67 51
227 67 51
231 67 51
235 67 51
239 67 51
243 67 51
247 67 51
251 67 51
0 63 51
3 63 51
7 63 51
11 63 51
15 63 51
19 63 51
23 63 51
27 63 51
31 63 51
35 63 51
39 63 51
43 63 51
47 63 51
51 63 51
55 63 51
59 63 51
63 63 51
67 63 51
71 63 51
75 63 51
79 63 51
83 63 51
87 63 51
91 63 51
95 63 51
99 63 51
103 63 51
107 63 51
111 63 51
115 63 51
119 63 51
123 63 51
127 63 51
131 63 51
135 63 51
139 63 51
143 63 51
147 63 51
151 63 51
155 63 51
159 63 51
163 63 51
167 63 51
171 63 51
175 63 51
179 63 51
183 63 51
187 63 51
191 63 51
195 63 51
199 63 51
203 63 51
207 63 51
211 63 51
215 63 51
219 63 51
223 63 51
227 63 51
231 63 51
235 63 51
239 63 51
243 63 51
247 63 51
251 63 51
0 59 51
3 59 51
7 59 51
11 59 51
15 59 51
19 59 51
23 59 51
27 59 51
31 59 51
35 59 51
39 59 51
43 59 51
47 59 51
51 59 51
55 59 51
59 59 51
63 59 51
67 59 51
71 59 51
75 59 51
79 59 51
83 59 51
87 59 51
91 59 51
95 59 51
99 59 51
103 59 51
107 59 51
111 59 51
115 59 51
119 59 51
123 59 51
127 59 51
131 59 51
135 59 51
139 59 51
143 59 51
147 59 51
151 59 51
155 59 51
159 59 51
163 59 51
167 59 51
171 59 51
175 59 51
179 59 51
183 59 51
187 59 51
191 59 51
195 59 51
199 59 51
203 59 51
207 59 51
211 59 51
215 59 51
219 59 51
223 59 51
227 59 51
231 59 51
235 59 51
239 59 51
243 59 51
247 59 51
251 59 51
0 55 51
3 55 51
7 55 51
11 55 51
15 55 51
19 55 51
23 55 51
27 55 51
31 55 51
35 55 51
39 55 51
43 55 51
47 55 51
51 55 51
55 55 51
59 55 51
63 55 51
67 55 51
71 55 51
75 55 51
79 55 51
83 55 51
87 55 51
91 55 51
95 55 51
99 55 51
103 55 51
107 55 51
111 55 51
115 55 51
119 55 51
123 55 51
127 55 51
131 55 51
135 55 51
139 55 51
143 55 51
147 55 51
151 55 51
155 55 51
159 55 51
163 55 51
167 55 51
171 55 51
175 55 51
179 55 51
183 55 51
187 55 51
191 55 51
195 55 51
199 55 51
203 55 51
207 55 51
211 55 51
215 55 51
219 55 51
223 55 51
227 55 51
231 55 51
235 55 51
239 55 51
243 55 51
247 55 51
251 55 51
0 51 51
3 51 51
7 51 51
11 51 51
15 51 51
19 51 51
23 51 51
27 51 51
31 51 51
35 51 51
39 51 51
43 51 51
47 51 51
51 51 51
55 51 51
59 51 51
63 51 51
67 51 51
71 51 51
75 51 51
79 51 51
83 51 51
87 51 51
91 51 51
95 51 51
99 51 51
103 51 51
107 51 51
111 51 51
115 51 51
119 51 51
123 51 51
127 51 51
131 51 51
135 51 51
139 51 51
143 51 51
147 51 51
151 51 51
155 51 51
159 51 51
163 51 51
167 51 51
171 51 51
175 51 51
179 51 51
183 51 51
187 51 51
191 51 51
195 51 51
199 51 51
203 51 51
207 51 51
211 51 51
215 51 51
219 51 51
223 51 51
227 51 51
231 51 51
235 51 51
239 51 51
243 51 51
247 51 51
251 51 51
0 47 51
3 47 51
7 47 51
11 47 51
15 47 51
19 47 51
23 47 51
27 47 51
31 47 51
35 47 51
39 47 51
43 47 51
47 47 51
51 47 51
55 47 51
59 47 51
63 47 51
67 47 51
71 47 51
75 47 51
79 47 51
83 47 51
87 47 51
91 47 51
95 47 51
99 47 51
103 47 51
107 47 51
111 47 51
115 47 51
119 47 51
123 47 51
127 47 51
131 47 51
135 47 51
139 47 51
143 47 51
147 47 51
151 47 51
155 47 51
159 47 51
163 47 51
167 47 51
171 47 51
175 47 51
179 47 51
183 47 51
187 47 51
191 47 51
195 47 51
199 47 51
203 47 51
207 47 51
211 47 51
215 47 51
219 47 51
223 47 51
227 47 51
231 47 51
235 47 51
239 47 51
243 47 51
247 47 51
251 47 51
0 43 51
3 43 51
7 43 51
11 43 51
15 43 51
19 43 51
23 43 51
27 43 51
31 43 51
35 43 51
39 43 51
43 43 51
47 43 51
51 43 51
55 43 51
59 43 51
63 43 51
67 43 51
71 43 51
75 43 51
79 43 51
83 43 51
87 43 51
91 43 51
95 43 51
99 43 51
103 43 51
107 43 51
111 43 51
115 43 51
119 43 51
123 43 51
127 43 51
131 43 51
135 43 51
139 43 51
143 43 51
147 43 51
151 43 51
155 43 51
159 43 51
163 43 51
167 43 51
171 43 51
175 43 51
179 43 51
183 43 51
187 43 51
191 43 51
195 43 51
199 43 51
203 43 51
207 43 51
211 43 51
215 43 51
219 43 51
223 43 51
227 43 51
231 43 51
235 43 51
239 43 51
243 43 51
247 43 51
251 43 51
0 39 51
3 39 51
7 39 51
11 39 51
15 39 51
19 39 51
23 39 51
27 39 51
31 39 51
35 39 51
39 39 51
43 39 51
47 39 51
51 39 51
55 39 51
59 39 51
63 39 51
67 39 51
71 39 51
75 39 51
79 39 51
83 39 51
87 39 51
91 39 51
95 39 51
99 39 51
103 39 51
107 39 51
111 39 51
115 39 51
119 39 51
123 39 51
127 39 51
131 39 51
135 39 51
139 39 51
143 39 51
147 39 51
151 39 51
155 39 51
159 39 51
163 39 51
167 39 51
171 39 51
175 39 51
179 39 51
183 39 51
187 39 51
191 39 51
195 39 51
199 39 51
203 39 51
207 39 51
211 39 51
215 39 51
219 39 51
223 39 51
227 39 51
231 39 51
235 39 51
239 39 51
243 39 51
247 39 51
251 39 51
0 35 51
3 35 51
7 35 51
11 35 51
15 35 51
19 35 51
23 35 51
27 35 51
31 35 51
35 35 51
39 35 51
43 35 51
47 35 51
51 35 51
55 35 51
59 35 51
63 35 51
67 35 51
71 35 51
75 35 51
79 35 51
83 35 51
87 35 51
91 35 51
95 35 51
99 35 51
103 35 51
107 35 51
111 35 51
115 35 51
119 35 51
123 35 51
127 35 51
131 35 51
135 35 51
139 35 51
143 35 51
147 35 51
151 35 51
155 35 51
159 35 51
163 35 51
167 35 51
171 35 51
175 35 51
179 35 51
183 35 51
187 35 51
191 35 51
195 35 51
199 35 51
203 35 51
207 35 51
211 35 51
215 35 51
219 35 51
223 35 51
227 35 51
231 35 51
235 35 51
239 35 51
243 35 51
247 35 51
251 35 51
0 31 51
3 31 51
7 31 51
11 31 51
15 31 51
19 31 51
23 31 51
27 31 51
31 31 51
35 31 51
39 31 51
43 31 51
47 31 51
51 31 51
55 31 51
59 31 51
63 31 51
67 31 51
71 31 51
75 31 51
79 31 51
83 31 51
87 31 51
91 31 51
95 31 51
99 31 51
103 31 51
107 31 51
111 31 51
115 31 51
119 31 51
123 31 51
127 31 51
131 31 51
135 31 51
139 31 51
143 31 51
147 31 51
151 31 51
155 31 51
159 31 51
163 31 51
167 31 51
171 31 51
175 31 51
179 31 51
183 31 51
187 31 51
191 31 51
195 31 51
199 31 51
203 31 51
207 31 51
211 31 51
215 31 51
219 31 51
223 31 51
227 31 51
231 31 51
235 31 51
239 31 51
243 31 51
247 31 51
251 31 51
0 27 51
3 27 51
7 27 51
11 27 51
15 27 51
19 27 51
23 27 51
27 27 51
31 27 51
35 27 51
39 27 51
43 27 51
47 27 51
51 27 51
55 27 51
59 27 51
63 27 51
67 27 51
71 27 51
75 27 51
79 27 51
83 27 51
87 27 51
91 27 51
95 27 51
99 27 51
103 27 51
107 27 51
111 27 51
115 27 51
119 27 51
123 27 51
127 27 51
131 27 51
135 27 51
139 27 51
143 27 51
147 27 51
151 27 51
155 27 51
159 27 51
163 27 51
167 27 51
171 27 51
175 27 51
179 27 51
183 27 51
187 27 51
191 27 51
195 27 51
199 27 51
203 27 51
207 27 51
211 27 51
215 27 51
219 27 51
223 27 51
227 27 51
231 27 51
235 27 51
239 27 51
243 27 51
247 27 51
251 27 51
0 23 51
3 23 51
7 23 51
11 23 51
15 23 51
19 23 51
23 23 51
27 23 51
31 23 51
35 23 51
39 23 51
43 23 51
47 23 51
51 23 51
55 23 51
59 23 51
63 23 51
67 23 51
71 23 51
75 23 51
79 23 51
83 23 51
87 23 51
91 23 51
95 23 51
99 23 51
103 23 51
107 23 51
111 23 51
115 23 51
119 23 51
123 23 51
127 23 51
131 23 51
135 23 51
139 23 51
143 23 51
147 23 51
151 23 51
155 23 51
159 23 51
163 23 51
167 23 51
171 23 51
175 23 51
179 23 51
183 23 51
187 23 51
191 23 51
195 23 51
199 23 51
203 23 51
207 23 51
211 23 51
215 23 51
219 23 51
223 23 51
227 23 51
231 23 51
235 23 51
239 23 51
243 23 51
247 23 51
251 23 51
0 19 51
3 19 51
7 19 51
11 19 51
15 19 51
19 19 51
23 19 51
27 19 51
31 19 51
35 19 51
39 19 51
43 19 51
47 19 51
51 19 51
55 19 51
59 19 51
63 19 51
67 19 51
71 19 51
75 19 51
79 19 51
83 19 51
87 19 51
91 19 51
95 19 51
99 19 51
103 19 51
107 19 51
111 19 51
115 19 51
119 19 51
123 19 51
127 19 51
131 19 51
135 19 51
139 19 51
143 19 51
147 19 51
151 19 51
155 19 51
159 19 51
163 19 51
167 19 51
171 19 51
175 19 51
179 19 51
183 19 51
187 19 51
191 19 51
195 19 51
199 19 51
203 19 51
207 19 51
211 19 51
215 19 51
219 19 51
223 19 51
227 19 51
231 19 51
235 19 51
239 19 51
243 19 51
247 19 51
251 19 51
0 15 51
3 15 51
7 15 51
11 15 51
15 15 51
19 15 51
23 15 51
27 15 51
31 15 51
35 15 51
39 15 51
43 15 51
47 15 51
51 15 51
55 15 51
59 15 51
63 15 51
67 15 51
71 15 51
75 15 51
79 15 51
83 15 51
87 15 51
91 15 51
95 15 51
99 15 51
103 15 51
107 15 51
111 15 51
115 15 51
119 15 51
123 15 51
127 15 51
131 15 51
135 15 51
139 15 51
143 15 51
147 15 51
151 15 51
155 15 51
159 15 51
163 15 51
167 15 51
171 15 51
175 15 51
179 15 51
183 15 51
187 15 51
191 15 51
195 15 51
199 15 51
203 15 51
207 15 51
211 15 51
215 15 51
219 15 51
223 15 51
227 15 51
231 15 51
235 15 51
239 15 51
243 15 51
247 15 51
251 15 51
0 11 51
3 11 51
7 11 51
11 11 51
15 11 51
19 11 51
23 11 51
27 11 51
31 11 51
35 11 51
39 11 51
43 11 51
47 11 51
51 11 51
55 11 51
59 11 51
63 11 51
67 11 51
71 11 51
75 11 51
79 11 51
83 11 51
87 11 51
91 11 51
95 11 51
99 11 51
103 11 51
107 11 51
111 11 51
115 11 51
119 11 51
123 11 51
127 11 51
131 11 51
135 11 51
139 11 51
143 11 51
147 11 51
151 11 51
155 11 51
159 11 51
163 11 51
167 11 51
171 11 51
175 11 51
179 11 51
183 11 51
187 11 51
191 11 51
195 11 51
199 11 51
203 11 51
207 11 51
211 11 51
215 11 51
219 11 51
223 11 51
227 11 51
231 11 51
235 11 51
239 11 51
243 11 51
247 11 51
251 11 51
0 7 51
3 7 51
7 7 51
11 7 51
15 7 51
19 7 51
23 7 51
27 7 51
31 7 51
35 7 51
39 7 51
43 7 51
47 7 51
51 7 51
55 7 51
59 7 51
63 7 51
67 7 51
71 7 51
75 7 51
79 7 51
83 7 51
87 7 51
91 7 51
95 7 51
99 7 51
103 7 51
107 7 51
111 7 51
115 7 51
119 7 51
123 7 51
127 7 51
131 7 51
135 7 51
139 7 51
143 7 51
147 7 51
151 7 51
155 7 51
159 7 51
163 7 51
167 7 51
171 7 51
175 7 51
179 7 51
183 7 51
187 7 51
191 7 51
195 7 51
199 7 51
203 7 51
207 7 51
211 7 51
215 7 51
219 7 51
223 7 51
227 7 51
231 7 51
235 7 51
239 7 51
243 7 51
247 7 51
251 7 51
0 3 51
3 3 51
7 3 51
11 3 51
15 3 51
19 3 51
23 3 51
27 3 51
31 3 51
35 3 51
39 3 51
43 3 51
47 3 51
51 3 51
55 3 51
59 3 51
63 3 51
67 3 51
71 3 51
75 3 51
79 3 51
83 3 51
87 3 51
91 3 51
95 3 51
99 3 51
103 3 51
107 3 51
111 3 51
115 3 51
119 3 51
123 3 51
127 3 51
131 3 51
135 3 51
139 3 51
143 3 51
147 3 51
151 3 51
155 3 51
159 3 51
163 3 51
167 3 51
171 3 51
175 3 51
179 3 51
183 3 51
187 3 51
191 3 51
195 3 51
199 3 51
203 3 51
207 3 51
211 3 51
215 3 51
219 3 51
223 3 51
227 3 51
231 3 51
235 3 51
239 3 51
243 3 51
247 3 51
251 3 51
0 0 51
3 0 51
7 0 51
11 0 51
15 0 51
19 0 51
23 0 51
27 0 51
31 0 51
35 0 51
39 0 51
43 0 51
47 0 51
51 0 51
55 0 51
59 0 51
63 0 51
67 0 51
71 0 51
75 0 51
79 0 51
83 0 51
87 0 51
91 0 51
95 0 51
99 0 51
103 0 51
107 0 51
111 0 51
115 0 51
119 0 51
123 0 51
127 0 51
131 0 51
135 0 51
139 0 51
143 0 51
147 0 51
151 0 51
155 0 51
159 0 51
163 0 51
167 0 51
171 0 51
175 0 51
179 0 51
183 0 51
187 0 51
191 0 51
195 0 51
199 0 51
203 0 51
207 0 51
211 0 51
215 0 51
219 0 51
223 0 51
227 0 51
231 0 51
235 0 51
239 0 51
243 0 51
247 0 51
251 0 51
